{
  "accessors": [
    {
      "bufferView": 2,
      "componentType": 5126,
      "count": 728,
      "max": [
        6.894716262817383,
        -0.7079635858535767,
        1.939092755317688
      ],
      "min": [
        4.203052520751953,
        -3.399627685546875,
        1.844580054283142
      ],
      "type": "VEC3"
    },
    {
      "bufferView": 2,
      "byteOffset": 8736,
      "componentType": 5126,
      "count": 728,
      "max": [
        0.9951992630958557,
        0.9951992630958557,
        1.0
      ],
      "min": [
        -0.9951992630958557,
        -0.9951991438865662,
        -1.0
      ],
      "type": "VEC3"
    },
    {
      "bufferView": 1,
      "componentType": 5126,
      "count": 728,
      "max": [
        0.9865171313285828,
        0.995361328125
      ],
      "min": [
        0.0014182345476001501,
        0.020353419706225395
      ],
      "type": "VEC2"
    },
    {
      "bufferView": 0,
      "componentType": 5125,
      "count": 1716,
      "type": "SCALAR"
    },
    {
      "bufferView": 2,
      "byteOffset": 17472,
      "componentType": 5126,
      "count": 724,
      "max": [
        6.852677822113037,
        3.6253392696380615,
        1.9831105470657349
      ],
      "min": [
        4.157440662384033,
        0.9301021099090576,
        1.888597846031189
      ],
      "type": "VEC3"
    },
    {
      "bufferView": 2,
      "byteOffset": 26160,
      "componentType": 5126,
      "count": 724,
      "max": [
        0.996520459651947,
        0.9965203404426575,
        1.0
      ],
      "min": [
        -0.9965205192565918,
        -0.9965204000473022,
        -1.0
      ],
      "type": "VEC3"
    },
    {
      "bufferView": 1,
      "byteOffset": 5824,
      "componentType": 5126,
      "count": 724,
      "max": [
        0.9865171313285828,
        0.995361328125
      ],
      "min": [
        0.0014182345476001501,
        0.020353419706225395
      ],
      "type": "VEC2"
    },
    {
      "bufferView": 0,
      "byteOffset": 6864,
      "componentType": 5125,
      "count": 1716,
      "type": "SCALAR"
    },
    {
      "bufferView": 2,
      "byteOffset": 34848,
      "componentType": 5126,
      "count": 40,
      "max": [
        6.744013786315918,
        -3.9811601638793945,
        4.400891304016113
      ],
      "min": [
        3.897645950317383,
        -7.066740036010742,
        1.4690849781036377
      ],
      "type": "VEC3"
    },
    {
      "bufferView": 2,
      "byteOffset": 35328,
      "componentType": 5126,
      "count": 40,
      "max": [
        0.7289966344833374,
        0.7706995606422424,
        0.9458889961242676
      ],
      "min": [
        -0.728996753692627,
        -0.770699143409729,
        -0.9458903670310974
      ],
      "type": "VEC3"
    },
    {
      "bufferView": 1,
      "byteOffset": 11616,
      "componentType": 5126,
      "count": 40,
      "max": [
        0.986116886138916,
        0.9978289604187012
      ],
      "min": [
        -2.777203917503357e-05,
        0.00430959602817893
      ],
      "type": "VEC2"
    },
    {
      "bufferView": 0,
      "byteOffset": 13728,
      "componentType": 5125,
      "count": 72,
      "type": "SCALAR"
    },
    {
      "bufferView": 2,
      "byteOffset": 35808,
      "componentType": 5126,
      "count": 46,
      "max": [
        6.7058868408203125,
        7.274422645568848,
        4.449370384216309
      ],
      "min": [
        3.8901708126068115,
        4.17030143737793,
        1.517564058303833
      ],
      "type": "VEC3"
    },
    {
      "bufferView": 2,
      "byteOffset": 36360,
      "componentType": 5126,
      "count": 46,
      "max": [
        0.7406222820281982,
        0.7829911708831787,
        0.945888876914978
      ],
      "min": [
        -0.7406222224235535,
        -0.7829907536506653,
        -0.9458914995193481
      ],
      "type": "VEC3"
    },
    {
      "bufferView": 1,
      "byteOffset": 11936,
      "componentType": 5126,
      "count": 46,
      "max": [
        0.986116886138916,
        0.9978289604187012
      ],
      "min": [
        -2.777203917503357e-05,
        0.00430959602817893
      ],
      "type": "VEC2"
    },
    {
      "bufferView": 0,
      "byteOffset": 14016,
      "componentType": 5125,
      "count": 84,
      "type": "SCALAR"
    },
    {
      "bufferView": 2,
      "byteOffset": 36912,
      "componentType": 5126,
      "count": 112,
      "max": [
        7.472289085388184,
        -0.14489507675170898,
        3.518409252166748
      ],
      "min": [
        3.438112258911133,
        -4.084147930145264,
        1.750831961631775
      ],
      "type": "VEC3"
    },
    {
      "bufferView": 2,
      "byteOffset": 38256,
      "componentType": 5126,
      "count": 112,
      "max": [
        0.9568975567817688,
        0.9568975567817688,
        1.0
      ],
      "min": [
        -0.9568974375724792,
        -0.956897497177124,
        -1.0
      ],
      "type": "VEC3"
    },
    {
      "bufferView": 1,
      "byteOffset": 12304,
      "componentType": 5126,
      "count": 112,
      "max": [
        0.9868660569190979,
        0.9974104762077332
      ],
      "min": [
        4.4792526750825346e-05,
        0.0006357848178595304
      ],
      "type": "VEC2"
    },
    {
      "bufferView": 0,
      "byteOffset": 14352,
      "componentType": 5125,
      "count": 186,
      "type": "SCALAR"
    },
    {
      "bufferView": 2,
      "byteOffset": 39600,
      "componentType": 5126,
      "count": 112,
      "max": [
        7.451543807983398,
        4.280282020568848,
        3.586158275604248
      ],
      "min": [
        3.3880856037139893,
        0.312031626701355,
        1.8185808658599854
      ],
      "type": "VEC3"
    },
    {
      "bufferView": 2,
      "byteOffset": 40944,
      "componentType": 5126,
      "count": 112,
      "max": [
        0.9525614976882935,
        0.9630175232887268,
        1.0
      ],
      "min": [
        -0.9525614380836487,
        -0.9630169868469238,
        -1.0
      ],
      "type": "VEC3"
    },
    {
      "bufferView": 1,
      "byteOffset": 13200,
      "componentType": 5126,
      "count": 112,
      "max": [
        0.986932098865509,
        0.9974104762077332
      ],
      "min": [
        4.4792526750825346e-05,
        0.0006357848178595304
      ],
      "type": "VEC2"
    },
    {
      "bufferView": 0,
      "byteOffset": 15096,
      "componentType": 5125,
      "count": 186,
      "type": "SCALAR"
    }
  ],
  "asset": {
    "extras": {
      "author": "DotingHarlequin (https://sketchfab.com/DotingHarlequin)",
      "license": "SKETCHFAB Standard (https://sketchfab.com/licenses)",
      "source": "https://sketchfab.com/3d-models/psx-style-pizza-box-0ff132ae16234ebfade51863c608e6d4",
      "title": "PSX style pizza + box"
    },
    "generator": "Sketchfab-16.59.0",
    "version": "2.0"
  },
  "bufferViews": [
    {
      "buffer": 0,
      "byteLength": 15840,
      "name": "floatBufferViews",
      "target": 34963
    },
    {
      "buffer": 0,
      "byteLength": 14096,
      "byteOffset": 15840,
      "byteStride": 8,
      "name": "floatBufferViews",
      "target": 34962
    },
    {
      "buffer": 0,
      "byteLength": 42288,
      "byteOffset": 29936,
      "byteStride": 12,
      "name": "floatBufferViews",
      "target": 34962
    }
  ],
  "buffers": [
    {
      "byteLength": 72224,
      "uri": "scene.bin"
    }
  ],
  "images": [
    {
      "uri": "textures/Pizza_baseColor.png"
    },
    {
      "uri": "textures/PizzaHD_baseColor.png"
    },
    {
      "uri": "textures/PizzaBoxPremium_baseColor.png"
    },
    {
      "uri": "textures/PizzaBoxPremiumHD_baseColor.png"
    }
  ],
  "materials": [
    {
      "doubleSided": true,
      "name": "Pizza",
      "pbrMetallicRoughness": {
        "baseColorTexture": {
          "index": 0
        },
        "metallicFactor": 0.0
      }
    },
    {
      "doubleSided": true,
      "name": "PizzaHD",
      "pbrMetallicRoughness": {
        "baseColorTexture": {
          "index": 1
        },
        "metallicFactor": 0.0
      }
    },
    {
      "doubleSided": true,
      "name": "PizzaBoxPremium",
      "pbrMetallicRoughness": {
        "baseColorTexture": {
          "index": 2
        },
        "metallicFactor": 0.0
      }
    },
    {
      "doubleSided": true,
      "name": "PizzaBoxPremiumHD",
      "pbrMetallicRoughness": {
        "baseColorTexture": {
          "index": 3
        },
        "metallicFactor": 0.0
      }
    }
  ],
  "meshes": [
    {
      "name": "Pizza_Pizza_0",
      "primitives": [
        {
          "attributes": {
            "NORMAL": 1,
            "POSITION": 0,
            "TEXCOORD_0": 2
          },
          "indices": 3,
          "material": 0,
          "mode": 4
        }
      ]
    },
    {
      "name": "PizzaHD_PizzaHD_0",
      "primitives": [
        {
          "attributes": {
            "NORMAL": 5,
            "POSITION": 4,
            "TEXCOORD_0": 6
          },
          "indices": 7,
          "material": 1,
          "mode": 4
        }
      ]
    },
    {
      "name": "PizzaBoxClosed_PizzaBoxPremium_0",
      "primitives": [
        {
          "attributes": {
            "NORMAL": 9,
            "POSITION": 8,
            "TEXCOORD_0": 10
          },
          "indices": 11,
          "material": 2,
          "mode": 4
        }
      ]
    },
    {
      "name": "PizzaBoxClosedHD_PizzaBoxPremiumHD_0",
      "primitives": [
        {
          "attributes": {
            "NORMAL": 13,
            "POSITION": 12,
            "TEXCOORD_0": 14
          },
          "indices": 15,
          "material": 3,
          "mode": 4
        }
      ]
    },
    {
      "name": "PizzaBoxOpen_PizzaBoxPremium_0",
      "primitives": [
        {
          "attributes": {
            "NORMAL": 17,
            "POSITION": 16,
            "TEXCOORD_0": 18
          },
          "indices": 19,
          "material": 2,
          "mode": 4
        }
      ]
    },
    {
      "name": "PizzaBoxOpenHD_PizzaBoxPremiumHD_0",
      "primitives": [
        {
          "attributes": {
            "NORMAL": 21,
            "POSITION": 20,
            "TEXCOORD_0": 22
          },
          "indices": 23,
          "material": 3,
          "mode": 4
        }
      ]
    }
  ],
  "nodes": [
    {
      "children": [
        1
      ],
      "matrix": [
        1.0,
        0.0,
        0.0,
        0.0,
        0.0,
        2.220446049250313e-16,
        -1.0,
        0.0,
        0.0,
        1.0,
        2.220446049250313e-16,
        0.0,
        0.0,
        0.0,
        0.0,
        1.0
      ],
      "name": "Sketchfab_model"
    },
    {
      "children": [
        2
      ],
      "matrix": [
        0.009999999776482582,
        0.0,
        0.0,
        0.0,
        0.0,
        0.0,
        0.009999999776482582,
        0.0,
        0.0,
        -0.009999999776482582,
        0.0,
        0.0,
        0.0,
        0.0,
        0.0,
        1.0
      ],
      "name": "337ee79c25fb4df5acc6bc73f29ab887.fbx"
    },
    {
      "children": [
        3,
        5,
        7,
        9,
        11,
        13
      ],
      "name": "RootNode"
    },
    {
      "children": [
        4
      ],
      "matrix": [
        100.0,
        0.0,
        0.0,
        0.0,
        0.0,
        -1.629206793918314e-05,
        -99.99999999999868,
        0.0,
        0.0,
        99.99999999999868,
        -1.629206793918314e-05,
        0.0,
        0.0,
        0.0,
        0.0,
        1.0
      ],
      "name": "Pizza"
    },
    {
      "mesh": 0,
      "name": "Pizza_Pizza_0"
    },
    {
      "children": [
        6
      ],
      "matrix": [
        100.0,
        0.0,
        0.0,
        0.0,
        0.0,
        -1.629206793918314e-05,
        -99.99999999999868,
        0.0,
        0.0,
        99.99999999999868,
        -1.629206793918314e-05,
        0.0,
        0.0,
        0.0,
        0.0,
        1.0
      ],
      "name": "PizzaHD"
    },
    {
      "mesh": 1,
      "name": "PizzaHD_PizzaHD_0"
    },
    {
      "children": [
        8
      ],
      "matrix": [
        100.0,
        0.0,
        0.0,
        0.0,
        0.0,
        -1.629206793918314e-05,
        -99.99999999999868,
        0.0,
        0.0,
        99.99999999999868,
        -1.629206793918314e-05,
        0.0,
        0.0,
        0.0,
        0.0,
        1.0
      ],
      "name": "PizzaBoxClosed"
    },
    {
      "mesh": 2,
      "name": "PizzaBoxClosed_PizzaBoxPremium_0"
    },
    {
      "children": [
        10
      ],
      "matrix": [
        100.0,
        0.0,
        0.0,
        0.0,
        0.0,
        -1.629206793918314e-05,
        -99.99999999999868,
        0.0,
        0.0,
        99.99999999999868,
        -1.629206793918314e-05,
        0.0,
        0.0,
        0.0,
        0.0,
        1.0
      ],
      "name": "PizzaBoxClosedHD"
    },
    {
      "mesh": 3,
      "name": "PizzaBoxClosedHD_PizzaBoxPremiumHD_0"
    },
    {
      "children": [
        12
      ],
      "matrix": [
        100.0,
        0.0,
        0.0,
        0.0,
        0.0,
        -1.629206793918314e-05,
        -99.99999999999868,
        0.0,
        0.0,
        99.99999999999868,
        -1.629206793918314e-05,
        0.0,
        0.0,
        0.0,
        0.0,
        1.0
      ],
      "name": "PizzaBoxOpen"
    },
    {
      "mesh": 4,
      "name": "PizzaBoxOpen_PizzaBoxPremium_0"
    },
    {
      "children": [
        14
      ],
      "matrix": [
        100.0,
        0.0,
        0.0,
        0.0,
        0.0,
        -1.629206793918314e-05,
        -99.99999999999868,
        0.0,
        0.0,
        99.99999999999868,
        -1.629206793918314e-05,
        0.0,
        0.0,
        0.0,
        0.0,
        1.0
      ],
      "name": "PizzaBoxOpenHD"
    },
    {
      "mesh": 5,
      "name": "PizzaBoxOpenHD_PizzaBoxPremiumHD_0"
    }
  ],
  "samplers": [
    {
      "magFilter": 9729,
      "minFilter": 9987,
      "wrapS": 10497,
      "wrapT": 10497
    }
  ],
  "scene": 0,
  "scenes": [
    {
      "name": "Sketchfab_Scene",
      "nodes": [
        0
      ]
    }
  ],
  "textures": [
    {
      "sampler": 0,
      "source": 0
    },
    {
      "sampler": 0,
      "source": 1
    },
    {
      "sampler": 0,
      "source": 2
    },
    {
      "sampler": 0,
      "source": 3
    }
  ]
}
