{
  "accessors": [
    {
      "bufferView": 2,
      "componentType": 5126,
      "count": 65532,
      "max": [
        8.485281944274902,
        21.873619079589844,
        9.849047660827637
      ],
      "min": [
        3.4467248916625977,
        17.3139705657959,
        7.4841790199279785
      ],
      "type": "VEC3"
    },
    {
      "bufferView": 2,
      "byteOffset": 786384,
      "componentType": 5126,
      "count": 65532,
      "max": [
        0.9999954700469971,
        0.999999463558197,
        0.9999996423721313
      ],
      "min": [
        -0.9999863505363464,
        -0.9996886253356934,
        -0.9985561370849609
      ],
      "type": "VEC3"
    },
    {
      "bufferView": 1,
      "componentType": 5126,
      "count": 65532,
      "max": [
        0.9999849796295166,
        0.9968839883804321
      ],
      "min": [
        7.999999979801942e-06,
        0.00072900002123788
      ],
      "type": "VEC2"
    },
    {
      "bufferView": 0,
      "componentType": 5125,
      "count": 365538,
      "type": "SCALAR"
    },
    {
      "bufferView": 2,
      "byteOffset": 1572768,
      "componentType": 5126,
      "count": 65532,
      "max": [
        9.456668853759766,
        23.11991310119629,
        10.394963264465332
      ],
      "min": [
        4.468757152557373,
        15.898335456848145,
        7.26334285736084
      ],
      "type": "VEC3"
    },
    {
      "bufferView": 2,
      "byteOffset": 2359152,
      "componentType": 5126,
      "count": 65532,
      "max": [
        0.9999905228614807,
        0.9999493360519409,
        0.9999995231628418
      ],
      "min": [
        -0.9999622106552124,
        -0.9999706149101257,
        -0.9997532367706299
      ],
      "type": "VEC3"
    },
    {
      "bufferView": 1,
      "byteOffset": 524256,
      "componentType": 5126,
      "count": 65532,
      "max": [
        0.9999930262565613,
        0.9999930262565613
      ],
      "min": [
        3.999999989900971e-06,
        6.0999998822808266e-05
      ],
      "type": "VEC2"
    },
    {
      "bufferView": 0,
      "byteOffset": 1462152,
      "componentType": 5125,
      "count": 345585,
      "type": "SCALAR"
    },
    {
      "bufferView": 2,
      "byteOffset": 3145536,
      "componentType": 5126,
      "count": 65532,
      "max": [
        9.496395111083984,
        21.527421951293945,
        10.515652656555176
      ],
      "min": [
        5.0871357917785645,
        16.171110153198242,
        7.545454025268555
      ],
      "type": "VEC3"
    },
    {
      "bufferView": 2,
      "byteOffset": 3931920,
      "componentType": 5126,
      "count": 65532,
      "max": [
        0.9999859929084778,
        0.9999729990959167,
        0.9999996423721313
      ],
      "min": [
        -0.9999909996986389,
        -0.9999285340309143,
        -0.9995123744010925
      ],
      "type": "VEC3"
    },
    {
      "bufferView": 1,
      "byteOffset": 1048512,
      "componentType": 5126,
      "count": 65532,
      "max": [
        0.9999960064888,
        0.9984440207481384
      ],
      "min": [
        1.2999999853491317e-05,
        5.8000001445179805e-05
      ],
      "type": "VEC2"
    },
    {
      "bufferView": 0,
      "byteOffset": 2844492,
      "componentType": 5125,
      "count": 332445,
      "type": "SCALAR"
    },
    {
      "bufferView": 2,
      "byteOffset": 4718304,
      "componentType": 5126,
      "count": 43455,
      "max": [
        8.473291397094727,
        20.267911911010742,
        10.246578216552734
      ],
      "min": [
        3.514981985092163,
        15.890417098999023,
        7.362325191497803
      ],
      "type": "VEC3"
    },
    {
      "bufferView": 2,
      "byteOffset": 5239764,
      "componentType": 5126,
      "count": 43455,
      "max": [
        0.9999516606330872,
        0.9999832510948181,
        0.9999986290931702
      ],
      "min": [
        -0.9999027848243713,
        -0.9999706149101257,
        -0.9997988939285278
      ],
      "type": "VEC3"
    },
    {
      "bufferView": 1,
      "byteOffset": 1572768,
      "componentType": 5126,
      "count": 43455,
      "max": [
        0.9999930262565613,
        0.9980210065841675
      ],
      "min": [
        3.5000000934815034e-05,
        0.0001049999991664663
      ],
      "type": "VEC2"
    },
    {
      "bufferView": 0,
      "byteOffset": 4174272,
      "componentType": 5125,
      "count": 219933,
      "type": "SCALAR"
    }
  ],
  "asset": {
    "extras": {
      "author": "gryd (https://sketchfab.com/gryd)",
      "license": "CC-BY-4.0 (http://creativecommons.org/licenses/by/4.0/)",
      "source": "https://sketchfab.com/3d-models/dead-plant-a86d8e4bfcd446248ffdaf896a8016d3",
      "title": "Dead Plant!"
    },
    "generator": "Sketchfab-15.25.0",
    "version": "2.0"
  },
  "bufferViews": [
    {
      "buffer": 0,
      "byteLength": 5054004,
      "name": "floatBufferViews",
      "target": 34963
    },
    {
      "buffer": 0,
      "byteLength": 1920408,
      "byteOffset": 5054004,
      "byteStride": 8,
      "name": "floatBufferViews",
      "target": 34962
    },
    {
      "buffer": 0,
      "byteLength": 5761224,
      "byteOffset": 6974412,
      "byteStride": 12,
      "name": "floatBufferViews",
      "target": 34962
    }
  ],
  "buffers": [
    {
      "byteLength": 12735636,
      "uri": "scene.bin"
    }
  ],
  "images": [
    {
      "uri": "textures/3DModel_baseColor.jpeg"
    }
  ],
  "materials": [
    {
      "doubleSided": true,
      "name": "3DModel",
      "pbrMetallicRoughness": {
        "baseColorTexture": {
          "index": 0
        },
        "metallicFactor": 0.0
      }
    }
  ],
  "meshes": [
    {
      "name": "Object_0",
      "primitives": [
        {
          "attributes": {
            "NORMAL": 1,
            "POSITION": 0,
            "TEXCOORD_0": 2
          },
          "indices": 3,
          "material": 0,
          "mode": 4
        }
      ]
    },
    {
      "name": "Object_1",
      "primitives": [
        {
          "attributes": {
            "NORMAL": 5,
            "POSITION": 4,
            "TEXCOORD_0": 6
          },
          "indices": 7,
          "material": 0,
          "mode": 4
        }
      ]
    },
    {
      "name": "Object_2",
      "primitives": [
        {
          "attributes": {
            "NORMAL": 9,
            "POSITION": 8,
            "TEXCOORD_0": 10
          },
          "indices": 11,
          "material": 0,
          "mode": 4
        }
      ]
    },
    {
      "name": "Object_3",
      "primitives": [
        {
          "attributes": {
            "NORMAL": 13,
            "POSITION": 12,
            "TEXCOORD_0": 14
          },
          "indices": 15,
          "material": 0,
          "mode": 4
        }
      ]
    }
  ],
  "nodes": [
    {
      "children": [
        1
      ],
      "matrix": [
        1.0,
        0.0,
        0.0,
        0.0,
        0.0,
        2.220446049250313e-16,
        -1.0,
        0.0,
        0.0,
        1.0,
        2.220446049250313e-16,
        0.0,
        0.0,
        0.0,
        0.0,
        1.0
      ],
      "name": "Sketchfab_model"
    },
    {
      "children": [
        2,
        3,
        4,
        5
      ],
      "name": "3DModel.obj.cleaner.materialmerger.gles"
    },
    {
      "mesh": 0,
      "name": "Object_2"
    },
    {
      "mesh": 1,
      "name": "Object_3"
    },
    {
      "mesh": 2,
      "name": "Object_4"
    },
    {
      "mesh": 3,
      "name": "Object_5"
    }
  ],
  "samplers": [
    {
      "magFilter": 9729,
      "minFilter": 9987,
      "wrapS": 10497,
      "wrapT": 10497
    }
  ],
  "scene": 0,
  "scenes": [
    {
      "name": "Sketchfab_Scene",
      "nodes": [
        0
      ]
    }
  ],
  "textures": [
    {
      "sampler": 0,
      "source": 0
    }
  ]
}
